<?xml version="1.0" encoding="utf-8"?>
<!-- Generator: Adobe Illustrator 27.5.0, SVG Export Plug-In . SVG Version: 6.00 Build 0)  -->
<svg version="1.1" id="Layer_1" xmlns="http://www.w3.org/2000/svg" xmlns:xlink="http://www.w3.org/1999/xlink" x="0px" y="0px"
	 viewBox="0 0 103.3 34.1" style="enable-background:new 0 0 103.3 34.1;" xml:space="preserve">
<style type="text/css">
	.st0{fill:#7670B4;}
	.st1{fill:#E9E6F3;}
	.st2{fill:#E6A55A;}
	.st3{fill:#CAC4E1;}
	.st4{fill:#FFFFFF;}
</style>
<g>
	<circle class="st0" cx="17" cy="17" r="17"/>
	<path class="st1" d="M4.5,15.8C4.5,9.6,10,4.5,16.7,4.5s12.2,5.1,12.2,11.3"/>
	<path class="st0" d="M31.4,16.3c0,7.9-6.4,14.4-14.4,14.4c-7.9,0-14.4-6.4-14.4-14.4"/>
	<path class="st2" d="M17,2.6"/>
	<path class="st3" d="M25.8,18c0,5-4.1,9.1-9.1,9.1S7.6,23,7.6,18"/>
	<circle class="st3" cx="16.7" cy="17" r="4.7"/>
	<path class="st3" d="M33.1,15.5l-7.5-3.6c-0.5,0.6-1.2,0.9-2,0.9c-1.4,0-2.6-1.2-2.6-2.6c0-0.2,0-0.4,0.1-0.5l-4.1-2
		c-0.2-0.1-0.4-0.1-0.6,0l-4.1,2c0,0.2,0,0.3,0,0.5c0,1.4-1.2,2.6-2.6,2.6c-0.7,0-1.4-0.3-1.9-0.8l-7.1,3.5C0,15.9,0.2,17,1,17h15.5
		h16.3C33.5,17,33.8,15.9,33.1,15.5z"/>
	<circle class="st1" cx="16.7" cy="17" r="3.4"/>
	<ellipse class="st1" cx="16.7" cy="7.5" rx="3.4" ry="3.8"/>
	<circle class="st4" cx="16.7" cy="17" r="2.6"/>
	<path class="st0" d="M16.7,34.1L16.7,34.1c-2,0-3.6-1.6-3.6-3.6v-4.2c0-2,1.6-3.6,3.6-3.6l0,0c2,0,3.6,1.6,3.6,3.6v4.2
		C20.3,32.4,18.7,34.1,16.7,34.1z"/>
	<path class="st0" d="M13.3,7.5c0,2.1,1.5,0,3.4,0s3.4,2.1,3.4,0s-1.5-3.8-3.4-3.8S13.3,5.4,13.3,7.5z"/>
	<path class="st3" d="M9.8,12.8c1.4,0,2.6-1.2,2.6-2.6c0-0.2,0-0.3,0-0.5L8,11.9C8.4,12.5,9.1,12.8,9.8,12.8z"/>
	<path class="st3" d="M23.6,12.8c0.8,0,1.5-0.4,2-0.9l-4.5-2.2c0,0.2-0.1,0.3-0.1,0.5C21,11.7,22.2,12.8,23.6,12.8z"/>
</g>
<g>
	<path class="st1" d="M44.6,21.8h-3.4c-0.5,0-0.8-0.1-1.1-0.3s-0.3-0.6-0.3-1.1V12c0-0.5,0.1-0.9,0.3-1.1c0.2-0.2,0.6-0.3,1.1-0.3
		h3.6c0.5,0,1,0,1.4,0.1s0.7,0.2,1.1,0.4c0.3,0.2,0.5,0.4,0.7,0.6s0.4,0.5,0.5,0.8s0.2,0.6,0.2,0.9c0,1.1-0.6,1.9-1.7,2.5
		c1.5,0.5,2.2,1.4,2.2,2.7c0,0.6-0.2,1.2-0.5,1.7s-0.8,0.9-1.3,1.1c-0.3,0.1-0.7,0.2-1.2,0.3C45.7,21.7,45.2,21.8,44.6,21.8z
		 M42.1,12.2v2.9h2.1c0.6,0,1-0.1,1.3-0.2s0.5-0.3,0.7-0.6c0.1-0.2,0.2-0.5,0.2-0.7c0-0.6-0.2-0.9-0.6-1.1s-1-0.3-1.8-0.3L42.1,12.2
		L42.1,12.2z M44.4,16.8H42v3.3h2.4c1.5,0,2.3-0.6,2.3-1.7c0-0.6-0.2-1-0.6-1.2S45.2,16.8,44.4,16.8z"/>
	<path class="st1" d="M51.2,12.5c-0.3,0-0.5-0.1-0.7-0.3c-0.2-0.2-0.3-0.4-0.3-0.8c0-0.3,0.1-0.5,0.3-0.7c0.2-0.2,0.5-0.3,0.7-0.3
		c0.3,0,0.5,0.1,0.7,0.3s0.3,0.4,0.3,0.8c0,0.3-0.1,0.6-0.3,0.8C51.8,12.4,51.5,12.5,51.2,12.5z M52.3,14.6v6c0,0.4-0.1,0.7-0.3,1
		c-0.2,0.2-0.5,0.3-0.8,0.3s-0.6-0.1-0.7-0.3c-0.2-0.2-0.3-0.5-0.3-0.9v-6c0-0.4,0.1-0.7,0.3-0.9c0.2-0.2,0.4-0.3,0.7-0.3
		s0.6,0.1,0.8,0.3S52.3,14.3,52.3,14.6z"/>
	<path class="st1" d="M58.9,21l-1.8-3L56,19.1v1.7c0,0.4-0.1,0.7-0.3,0.9C55.5,21.9,55.2,22,55,22c-0.3,0-0.6-0.1-0.8-0.3
		c-0.2-0.2-0.3-0.5-0.3-1v-8.9c0-0.5,0.1-0.8,0.3-1.1c0.2-0.2,0.4-0.4,0.8-0.4c0.3,0,0.6,0.1,0.8,0.3c0.2,0.2,0.3,0.5,0.3,1v5.1
		l2.4-2.5c0.3-0.3,0.5-0.5,0.7-0.6s0.3-0.2,0.6-0.2c0.3,0,0.5,0.1,0.7,0.2c0.2,0.2,0.3,0.4,0.3,0.6c0,0.3-0.3,0.7-0.9,1.2l-1.1,1
		l2.1,3.4c0.2,0.3,0.3,0.4,0.3,0.6c0.1,0.1,0.1,0.3,0.1,0.4c0,0.3-0.1,0.6-0.3,0.8c-0.2,0.2-0.4,0.3-0.7,0.3c-0.3,0-0.5-0.1-0.6-0.2
		C59.3,21.6,59.1,21.4,58.9,21z"/>
	<path class="st1" d="M67.1,18.2H63c0,0.5,0.1,0.9,0.3,1.3s0.4,0.6,0.7,0.8c0.3,0.2,0.7,0.3,1,0.3s0.5,0,0.7-0.1s0.4-0.2,0.6-0.3
		c0.2-0.1,0.4-0.3,0.5-0.4c0.2-0.1,0.4-0.3,0.6-0.6c0.1-0.1,0.3-0.1,0.5-0.1s0.4,0.1,0.5,0.2s0.2,0.3,0.2,0.5s-0.1,0.4-0.2,0.7
		S68,21,67.7,21.2c-0.3,0.2-0.7,0.4-1.1,0.6C66.1,22,65.6,22,65,22c-1.3,0-2.4-0.4-3.1-1.1s-1.1-1.8-1.1-3.1c0-0.6,0.1-1.2,0.3-1.7
		c0.2-0.5,0.5-1,0.8-1.4c0.4-0.4,0.8-0.7,1.3-0.9c0.5-0.2,1.1-0.3,1.7-0.3c0.8,0,1.5,0.2,2.1,0.5s1,0.8,1.3,1.3s0.4,1.1,0.4,1.7
		c0,0.5-0.2,0.9-0.5,1C68.1,18.1,67.6,18.2,67.1,18.2z M63,17h3.8c-0.1-0.7-0.2-1.3-0.6-1.6c-0.3-0.4-0.8-0.5-1.3-0.5
		s-1,0.2-1.3,0.5C63.3,15.8,63.1,16.3,63,17z"/>
	<path class="st1" d="M79.8,12.3h-4.5v2.9H79c0.3,0,0.6,0.1,0.8,0.2c0.2,0.2,0.3,0.4,0.3,0.6s-0.1,0.5-0.3,0.6
		c-0.2,0.2-0.4,0.2-0.8,0.2h-3.7v3.7c0,0.5-0.1,0.8-0.3,1c-0.2,0.2-0.5,0.3-0.8,0.3s-0.6-0.1-0.8-0.3s-0.3-0.6-0.3-1v-8.6
		c0-0.3,0-0.6,0.1-0.8c0.1-0.2,0.2-0.4,0.5-0.5s0.5-0.1,0.8-0.1h5.4c0.4,0,0.6,0.1,0.8,0.2c0.2,0.2,0.3,0.4,0.3,0.6
		c0,0.3-0.1,0.5-0.3,0.6C80.4,12.2,80.2,12.3,79.8,12.3z"/>
	<path class="st1" d="M82.5,12.5c-0.3,0-0.5-0.1-0.7-0.3c-0.2-0.2-0.3-0.4-0.3-0.8c0-0.3,0.1-0.5,0.3-0.7c0.2-0.2,0.5-0.3,0.7-0.3
		c0.3,0,0.5,0.1,0.7,0.3s0.3,0.4,0.3,0.8c0,0.3-0.1,0.6-0.3,0.8C83,12.4,82.8,12.5,82.5,12.5z M83.5,14.6v6c0,0.4-0.1,0.7-0.3,1
		c-0.2,0.2-0.5,0.3-0.8,0.3s-0.6-0.1-0.7-0.3c-0.2-0.2-0.3-0.5-0.3-0.9v-6c0-0.4,0.1-0.7,0.3-0.9c0.2-0.2,0.4-0.3,0.7-0.3
		s0.6,0.1,0.8,0.3S83.5,14.3,83.5,14.6z"/>
	<path class="st1" d="M84.9,20.7v-9.1c0-0.4,0.1-0.7,0.3-1c0.2-0.2,0.4-0.3,0.8-0.3c0.3,0,0.6,0.1,0.8,0.3c0.2,0.2,0.3,0.5,0.3,1
		v9.1c0,0.4-0.1,0.7-0.3,1C86.6,21.9,86.3,22,86,22s-0.6-0.1-0.7-0.3C85,21.4,84.9,21.1,84.9,20.7z"/>
	<path class="st1" d="M94.2,18.2h-4.1c0,0.5,0.1,0.9,0.3,1.3c0.2,0.4,0.4,0.6,0.7,0.8s0.7,0.3,1,0.3c0.2,0,0.5,0,0.7-0.1
		s0.4-0.2,0.6-0.3c0.2-0.1,0.4-0.3,0.5-0.4s0.4-0.3,0.6-0.6c0.1-0.1,0.3-0.1,0.5-0.1s0.4,0.1,0.5,0.2s0.2,0.3,0.2,0.5
		s-0.1,0.4-0.2,0.7c-0.1,0.3-0.4,0.5-0.7,0.7c-0.3,0.2-0.7,0.4-1.1,0.6c-0.5,0.2-1,0.2-1.6,0.2c-1.3,0-2.4-0.4-3.1-1.1
		s-1.1-1.8-1.1-3.1c0-0.6,0.1-1.2,0.3-1.7c0.2-0.5,0.5-1,0.8-1.4c0.4-0.4,0.8-0.7,1.3-0.9c0.5-0.2,1.1-0.3,1.7-0.3
		c0.8,0,1.5,0.2,2.1,0.5s1,0.8,1.3,1.3s0.4,1.1,0.4,1.7c0,0.5-0.2,0.9-0.5,1C95.2,18.1,94.8,18.2,94.2,18.2z M90.1,17h3.8
		c-0.1-0.7-0.2-1.3-0.6-1.6C93,15,92.5,14.9,92,14.9s-0.9,0.2-1.3,0.5S90.2,16.3,90.1,17z"/>
	<path class="st1" d="M103.7,19.2c0,0.6-0.1,1.1-0.4,1.5s-0.7,0.7-1.2,0.9c-0.5,0.2-1.2,0.3-2,0.3s-1.4-0.1-1.9-0.3
		c-0.5-0.2-0.9-0.5-1.2-0.9c-0.3-0.3-0.4-0.7-0.4-1c0-0.2,0.1-0.4,0.2-0.6c0.2-0.2,0.4-0.2,0.6-0.2s0.4,0.1,0.5,0.2s0.2,0.3,0.3,0.5
		c0.2,0.4,0.5,0.7,0.8,0.8c0.3,0.2,0.7,0.3,1.2,0.3c0.4,0,0.8-0.1,1-0.3s0.4-0.4,0.4-0.6c0-0.4-0.1-0.6-0.4-0.8
		c-0.3-0.2-0.7-0.3-1.4-0.5c-0.7-0.2-1.3-0.4-1.8-0.6s-0.8-0.5-1.1-0.8c-0.3-0.3-0.4-0.7-0.4-1.2c0-0.4,0.1-0.8,0.4-1.2
		c0.2-0.4,0.6-0.7,1.1-0.9c0.5-0.2,1.1-0.3,1.8-0.3c0.5,0,1,0.1,1.5,0.2s0.8,0.3,1.1,0.5c0.3,0.2,0.5,0.4,0.7,0.6s0.2,0.5,0.2,0.7
		s-0.1,0.4-0.2,0.6s-0.4,0.2-0.7,0.2c-0.2,0-0.4-0.1-0.5-0.2s-0.3-0.3-0.5-0.6c-0.2-0.2-0.3-0.4-0.6-0.5c-0.2-0.1-0.5-0.2-0.9-0.2
		S99.2,14.9,99,15c-0.2,0.2-0.4,0.4-0.4,0.6s0.1,0.4,0.3,0.5s0.4,0.3,0.7,0.3c0.3,0.1,0.7,0.2,1.3,0.3c0.6,0.2,1.2,0.3,1.6,0.6
		s0.7,0.5,0.9,0.8C103.5,18.5,103.7,18.8,103.7,19.2z"/>
</g>
</svg>
