<?xml version="1.0" encoding="utf-8"?>
<!-- Generator: Adobe Illustrator 27.5.0, SVG Export Plug-In . SVG Version: 6.00 Build 0)  -->
<svg version="1.1" id="Layer_1" xmlns="http://www.w3.org/2000/svg" xmlns:xlink="http://www.w3.org/1999/xlink" x="0px" y="0px"
	 viewBox="0 0 612 792" style="enable-background:new 0 0 612 792;" xml:space="preserve">
<style type="text/css">
	.st0{fill:#7670B4;}
	.st1{fill:#E9E6F3;}
	.st2{fill:#E6A55A;}
	.st3{fill:#CAC4E1;}
	.st4{fill:#FFFFFF;}
</style>
<g>
	<circle class="st0" cx="271.2" cy="396.5" r="17"/>
	<path class="st1" d="M258.7,395.3c0-6.2,5.5-11.3,12.2-11.3c6.7,0,12.2,5.1,12.2,11.3"/>
	<path class="st0" d="M285.6,395.8c0,7.9-6.4,14.4-14.4,14.4c-7.9,0-14.4-6.4-14.4-14.4"/>
	<path class="st2" d="M271.2,382.1"/>
	<path class="st3" d="M280,397.5c0,5-4.1,9.1-9.1,9.1c-5,0-9.1-4.1-9.1-9.1"/>
	<circle class="st3" cx="270.9" cy="396.5" r="4.7"/>
	<path class="st3" d="M287.3,395l-7.5-3.6c-0.5,0.6-1.2,0.9-2,0.9c-1.4,0-2.6-1.2-2.6-2.6c0-0.2,0-0.4,0.1-0.5l-4.1-2
		c-0.2-0.1-0.4-0.1-0.6,0l-4.1,2c0,0.2,0,0.3,0,0.5c0,1.4-1.2,2.6-2.6,2.6c-0.7,0-1.4-0.3-1.9-0.8l-7.1,3.5
		c-0.7,0.4-0.5,1.5,0.3,1.5h15.5H287C287.7,396.5,288,395.4,287.3,395z"/>
	<circle class="st1" cx="270.9" cy="396.5" r="3.4"/>
	<ellipse class="st1" cx="270.9" cy="387" rx="3.4" ry="3.8"/>
	<circle class="st4" cx="270.9" cy="396.5" r="2.6"/>
	<path class="st0" d="M270.9,413.6L270.9,413.6c-2,0-3.6-1.6-3.6-3.6v-4.2c0-2,1.6-3.6,3.6-3.6h0c2,0,3.6,1.6,3.6,3.6v4.2
		C274.5,411.9,272.9,413.6,270.9,413.6z"/>
	<path class="st0" d="M267.5,387c0,2.1,1.5,0,3.4,0s3.4,2.1,3.4,0c0-2.1-1.5-3.8-3.4-3.8S267.5,384.9,267.5,387z"/>
	<path class="st3" d="M264,392.3c1.4,0,2.6-1.2,2.6-2.6c0-0.2,0-0.3,0-0.5l-4.4,2.2C262.6,392,263.3,392.3,264,392.3z"/>
	<path class="st3" d="M277.8,392.3c0.8,0,1.5-0.4,2-0.9l-4.5-2.2c0,0.2-0.1,0.3-0.1,0.5C275.2,391.2,276.4,392.3,277.8,392.3z"/>
</g>
<g>
	<path class="st1" d="M298.8,401.3h-3.4c-0.5,0-0.8-0.1-1.1-0.3s-0.3-0.6-0.3-1.1v-8.4c0-0.5,0.1-0.9,0.3-1.1
		c0.2-0.2,0.6-0.3,1.1-0.3h3.6c0.5,0,1,0,1.4,0.1c0.4,0.1,0.7,0.2,1.1,0.4c0.3,0.2,0.5,0.4,0.7,0.6c0.2,0.2,0.4,0.5,0.5,0.8
		s0.2,0.6,0.2,0.9c0,1.1-0.6,1.9-1.7,2.5c1.5,0.5,2.2,1.4,2.2,2.7c0,0.6-0.2,1.2-0.5,1.7s-0.8,0.9-1.3,1.1c-0.3,0.1-0.7,0.2-1.2,0.3
		C299.9,401.2,299.4,401.3,298.8,401.3z M296.3,391.7v2.9h2.1c0.6,0,1-0.1,1.3-0.2c0.3-0.1,0.5-0.3,0.7-0.6c0.1-0.2,0.2-0.5,0.2-0.7
		c0-0.6-0.2-0.9-0.6-1.1c-0.4-0.2-1-0.3-1.8-0.3H296.3z M298.6,396.3h-2.4v3.3h2.4c1.5,0,2.3-0.6,2.3-1.7c0-0.6-0.2-1-0.6-1.2
		S299.4,396.3,298.6,396.3z"/>
	<path class="st1" d="M305.4,392c-0.3,0-0.5-0.1-0.7-0.3c-0.2-0.2-0.3-0.4-0.3-0.8c0-0.3,0.1-0.5,0.3-0.7c0.2-0.2,0.5-0.3,0.7-0.3
		c0.3,0,0.5,0.1,0.7,0.3s0.3,0.4,0.3,0.8c0,0.3-0.1,0.6-0.3,0.8C306,391.9,305.7,392,305.4,392z M306.5,394.1v6c0,0.4-0.1,0.7-0.3,1
		c-0.2,0.2-0.5,0.3-0.8,0.3s-0.6-0.1-0.7-0.3c-0.2-0.2-0.3-0.5-0.3-0.9v-6c0-0.4,0.1-0.7,0.3-0.9c0.2-0.2,0.4-0.3,0.7-0.3
		s0.6,0.1,0.8,0.3C306.4,393.5,306.5,393.8,306.5,394.1z"/>
	<path class="st1" d="M313.1,400.5l-1.8-3l-1.1,1.1v1.7c0,0.4-0.1,0.7-0.3,0.9c-0.2,0.2-0.5,0.3-0.7,0.3c-0.3,0-0.6-0.1-0.8-0.3
		c-0.2-0.2-0.3-0.5-0.3-1v-8.9c0-0.5,0.1-0.8,0.3-1.1c0.2-0.2,0.4-0.4,0.8-0.4c0.3,0,0.6,0.1,0.8,0.3c0.2,0.2,0.3,0.5,0.3,1v5.1
		l2.4-2.5c0.3-0.3,0.5-0.5,0.7-0.6s0.3-0.2,0.6-0.2c0.3,0,0.5,0.1,0.7,0.2c0.2,0.2,0.3,0.4,0.3,0.6c0,0.3-0.3,0.7-0.9,1.2l-1.1,1
		l2.1,3.4c0.2,0.3,0.3,0.4,0.3,0.6c0.1,0.1,0.1,0.3,0.1,0.4c0,0.3-0.1,0.6-0.3,0.8c-0.2,0.2-0.4,0.3-0.7,0.3c-0.3,0-0.5-0.1-0.6-0.2
		C313.5,401.1,313.3,400.9,313.1,400.5z"/>
	<path class="st1" d="M321.3,397.7h-4.1c0,0.5,0.1,0.9,0.3,1.3s0.4,0.6,0.7,0.8c0.3,0.2,0.7,0.3,1,0.3c0.3,0,0.5,0,0.7-0.1
		c0.2-0.1,0.4-0.2,0.6-0.3c0.2-0.1,0.4-0.3,0.5-0.4c0.2-0.1,0.4-0.3,0.6-0.6c0.1-0.1,0.3-0.1,0.5-0.1c0.2,0,0.4,0.1,0.5,0.2
		c0.1,0.1,0.2,0.3,0.2,0.5c0,0.2-0.1,0.4-0.2,0.7s-0.4,0.5-0.7,0.7c-0.3,0.2-0.7,0.4-1.1,0.6c-0.5,0.2-1,0.2-1.6,0.2
		c-1.3,0-2.4-0.4-3.1-1.1s-1.1-1.8-1.1-3.1c0-0.6,0.1-1.2,0.3-1.7c0.2-0.5,0.5-1,0.8-1.4c0.4-0.4,0.8-0.7,1.3-0.9
		c0.5-0.2,1.1-0.3,1.7-0.3c0.8,0,1.5,0.2,2.1,0.5c0.6,0.3,1,0.8,1.3,1.3c0.3,0.5,0.4,1.1,0.4,1.7c0,0.5-0.2,0.9-0.5,1
		C322.3,397.6,321.8,397.7,321.3,397.7z M317.2,396.5h3.8c-0.1-0.7-0.2-1.3-0.6-1.6c-0.3-0.4-0.8-0.5-1.3-0.5c-0.5,0-1,0.2-1.3,0.5
		C317.5,395.3,317.3,395.8,317.2,396.5z"/>
	<path class="st1" d="M334,391.8h-4.5v2.9h3.7c0.3,0,0.6,0.1,0.8,0.2c0.2,0.2,0.3,0.4,0.3,0.6s-0.1,0.5-0.3,0.6
		c-0.2,0.2-0.4,0.2-0.8,0.2h-3.7v3.7c0,0.5-0.1,0.8-0.3,1c-0.2,0.2-0.5,0.3-0.8,0.3c-0.3,0-0.6-0.1-0.8-0.3s-0.3-0.6-0.3-1v-8.6
		c0-0.3,0-0.6,0.1-0.8c0.1-0.2,0.2-0.4,0.5-0.5s0.5-0.1,0.8-0.1h5.4c0.4,0,0.6,0.1,0.8,0.2c0.2,0.2,0.3,0.4,0.3,0.6
		c0,0.3-0.1,0.5-0.3,0.6C334.6,391.7,334.4,391.8,334,391.8z"/>
	<path class="st1" d="M336.7,392c-0.3,0-0.5-0.1-0.7-0.3c-0.2-0.2-0.3-0.4-0.3-0.8c0-0.3,0.1-0.5,0.3-0.7c0.2-0.2,0.5-0.3,0.7-0.3
		c0.3,0,0.5,0.1,0.7,0.3s0.3,0.4,0.3,0.8c0,0.3-0.1,0.6-0.3,0.8C337.2,391.9,337,392,336.7,392z M337.7,394.1v6c0,0.4-0.1,0.7-0.3,1
		c-0.2,0.2-0.5,0.3-0.8,0.3s-0.6-0.1-0.7-0.3c-0.2-0.2-0.3-0.5-0.3-0.9v-6c0-0.4,0.1-0.7,0.3-0.9c0.2-0.2,0.4-0.3,0.7-0.3
		s0.6,0.1,0.8,0.3C337.6,393.5,337.7,393.8,337.7,394.1z"/>
	<path class="st1" d="M339.1,400.2v-9.1c0-0.4,0.1-0.7,0.3-1c0.2-0.2,0.4-0.3,0.8-0.3c0.3,0,0.6,0.1,0.8,0.3c0.2,0.2,0.3,0.5,0.3,1
		v9.1c0,0.4-0.1,0.7-0.3,1c-0.2,0.2-0.5,0.3-0.8,0.3c-0.3,0-0.6-0.1-0.7-0.3C339.2,400.9,339.1,400.6,339.1,400.2z"/>
	<path class="st1" d="M348.4,397.7h-4.1c0,0.5,0.1,0.9,0.3,1.3c0.2,0.4,0.4,0.6,0.7,0.8s0.7,0.3,1,0.3c0.2,0,0.5,0,0.7-0.1
		c0.2-0.1,0.4-0.2,0.6-0.3c0.2-0.1,0.4-0.3,0.5-0.4s0.4-0.3,0.6-0.6c0.1-0.1,0.3-0.1,0.5-0.1c0.2,0,0.4,0.1,0.5,0.2
		c0.1,0.1,0.2,0.3,0.2,0.5c0,0.2-0.1,0.4-0.2,0.7c-0.1,0.3-0.4,0.5-0.7,0.7c-0.3,0.2-0.7,0.4-1.1,0.6c-0.5,0.2-1,0.2-1.6,0.2
		c-1.3,0-2.4-0.4-3.1-1.1s-1.1-1.8-1.1-3.1c0-0.6,0.1-1.2,0.3-1.7c0.2-0.5,0.5-1,0.8-1.4c0.4-0.4,0.8-0.7,1.3-0.9
		c0.5-0.2,1.1-0.3,1.7-0.3c0.8,0,1.5,0.2,2.1,0.5c0.6,0.3,1,0.8,1.3,1.3c0.3,0.5,0.4,1.1,0.4,1.7c0,0.5-0.2,0.9-0.5,1
		C349.4,397.6,349,397.7,348.4,397.7z M344.3,396.5h3.8c-0.1-0.7-0.2-1.3-0.6-1.6c-0.3-0.4-0.8-0.5-1.3-0.5c-0.5,0-0.9,0.2-1.3,0.5
		S344.4,395.8,344.3,396.5z"/>
	<path class="st1" d="M357.9,398.7c0,0.6-0.1,1.1-0.4,1.5c-0.3,0.4-0.7,0.7-1.2,0.9c-0.5,0.2-1.2,0.3-2,0.3c-0.8,0-1.4-0.1-1.9-0.3
		c-0.5-0.2-0.9-0.5-1.2-0.9c-0.3-0.3-0.4-0.7-0.4-1c0-0.2,0.1-0.4,0.2-0.6c0.2-0.2,0.4-0.2,0.6-0.2c0.2,0,0.4,0.1,0.5,0.2
		s0.2,0.3,0.3,0.5c0.2,0.4,0.5,0.7,0.8,0.8c0.3,0.2,0.7,0.3,1.2,0.3c0.4,0,0.8-0.1,1-0.3s0.4-0.4,0.4-0.6c0-0.4-0.1-0.6-0.4-0.8
		c-0.3-0.2-0.7-0.3-1.4-0.5c-0.7-0.2-1.3-0.4-1.8-0.6s-0.8-0.5-1.1-0.8c-0.3-0.3-0.4-0.7-0.4-1.2c0-0.4,0.1-0.8,0.4-1.2
		c0.2-0.4,0.6-0.7,1.1-0.9c0.5-0.2,1.1-0.3,1.8-0.3c0.5,0,1,0.1,1.5,0.2s0.8,0.3,1.1,0.5c0.3,0.2,0.5,0.4,0.7,0.6
		c0.2,0.2,0.2,0.5,0.2,0.7c0,0.2-0.1,0.4-0.2,0.6s-0.4,0.2-0.7,0.2c-0.2,0-0.4-0.1-0.5-0.2s-0.3-0.3-0.5-0.6
		c-0.2-0.2-0.3-0.4-0.6-0.5c-0.2-0.1-0.5-0.2-0.9-0.2c-0.4,0-0.7,0.1-0.9,0.2c-0.2,0.2-0.4,0.4-0.4,0.6c0,0.2,0.1,0.4,0.3,0.5
		s0.4,0.3,0.7,0.3c0.3,0.1,0.7,0.2,1.3,0.3c0.6,0.2,1.2,0.3,1.6,0.6s0.7,0.5,0.9,0.8C357.7,398,357.9,398.3,357.9,398.7z"/>
</g>
</svg>
